<svg width="200" height="75" viewBox="0 0 200 75" fill="none" xmlns="http://www.w3.org/2000/svg">
<path d="M81.7468 37.1374H84.3907V46.3899C84.3907 47.7537 85.1077 48.8237 87.4826 48.8237H93.3531V51.2994H87.3259C83.3152 51.2994 81.7468 49.2433 81.7468 46.4109V37.1374Z" fill="white"/>
<path d="M100.345 37.1374H107.918V39.6132H100.345C98.7545 39.6132 98.0599 40.3055 98.0599 41.3964C98.0599 42.5504 98.8441 43.075 100.368 43.075H107.806V45.3198H100.3C98.7769 45.3198 97.9927 45.8864 97.9927 47.0404C97.9927 48.1524 98.7321 48.8237 100.278 48.8237H107.941V51.2994H100.278C96.6932 51.2994 95.2368 49.6419 95.2368 47.4389C95.2368 45.8234 96.021 44.7324 97.4101 44.187C95.9986 43.6414 95.2815 42.5504 95.2815 40.9978C95.2815 38.7319 96.7828 37.1374 100.345 37.1374Z" fill="white"/>
<path d="M117.673 39.9068L112.878 51.2994H109.966L115.276 38.7109C115.836 37.3892 116.867 36.8857 118.457 36.8857C120.026 36.8857 121.057 37.3892 121.594 38.7109L126.703 51.2994H123.768L119.174 39.9068C119.04 39.5712 118.794 39.4243 118.435 39.4243C118.076 39.4243 117.83 39.5712 117.673 39.9068Z" fill="white"/>
<path d="M128.903 37.1374H137.103C140.509 37.1374 141.965 39.1096 141.965 41.3754C141.965 43.1379 141.069 45.0262 138.761 45.6346L142.279 51.2994H139.344L135.893 45.8234H131.95C131.703 45.8234 131.569 45.9284 131.569 46.18V51.2994H128.925V45.6975C128.925 44.103 129.642 43.4527 131.3 43.4527H137.193C138.694 43.4527 139.299 42.4874 139.299 41.4805C139.299 40.4734 138.649 39.6132 137.193 39.6132H128.903V37.1374Z" fill="white"/>
<path d="M147.564 40.0957V51.2994H144.92V39.9698C144.92 38.1235 146.04 36.8857 148.393 36.8857C150.499 36.8857 151.44 37.8927 152.067 39.5083L156.481 48.5509C156.661 48.8867 156.952 49.1385 157.445 49.1385C158.005 49.1385 158.341 48.8237 158.341 48.3411V37.1374H161.008V48.446C161.008 50.3133 159.864 51.5512 157.534 51.5512C155.428 51.5512 154.465 50.5441 153.837 48.9285L149.424 39.8859C149.222 39.4663 148.953 39.2774 148.482 39.2774C147.878 39.2774 147.564 39.5922 147.564 40.0957Z" fill="white"/>
<path d="M169.825 37.1374H173.051L177.689 42.3615L182.551 37.1374H185.821L179.348 44.103L185.867 51.2994H182.64L177.622 45.6766L172.468 51.2994H169.197L175.964 43.9142L169.825 37.1374Z" fill="white"/>
<path d="M84.561 56.1694H87.9907V57.2905H84.561C83.8406 57.2905 83.5261 57.604 83.5261 58.0981C83.5261 58.6206 83.8812 58.8581 84.5712 58.8581H87.9398V59.8748H84.5408C83.8507 59.8748 83.4956 60.1314 83.4956 60.6538C83.4956 61.1574 83.8305 61.4615 84.5306 61.4615H88.0008V62.5827H84.5306C82.9071 62.5827 82.2476 61.8321 82.2476 60.8345C82.2476 60.1028 82.6027 59.6087 83.2318 59.3617C82.5926 59.1146 82.2679 58.6206 82.2679 57.9176C82.2679 56.8914 82.9477 56.1694 84.561 56.1694Z" fill="white"/>
<path d="M90.7441 57.509V62.5827H89.5468V57.4519C89.5468 56.6158 90.054 56.0553 91.1194 56.0553C92.0731 56.0553 92.4994 56.5114 92.7834 57.2429L94.7823 61.338C94.8635 61.4899 94.9954 61.604 95.2186 61.604C95.4724 61.604 95.6245 61.4615 95.6245 61.2431V56.1694H96.8321V61.2905C96.8321 62.1361 96.3145 62.6967 95.2592 62.6967C94.3055 62.6967 93.8692 62.2407 93.5851 61.509L91.5863 57.4139C91.4948 57.224 91.3731 57.1385 91.16 57.1385C90.8861 57.1385 90.7441 57.2809 90.7441 57.509Z" fill="white"/>
<path d="M101.316 56.1694H104.137V57.2905H101.316C99.9968 57.2905 99.4185 57.908 99.4185 59.3808C99.4185 60.8439 99.9867 61.4615 101.316 61.4615H102.452C103.122 61.4615 103.406 61.0815 103.406 60.5589C103.406 60.0459 103.122 59.7417 102.564 59.7417H101.042V58.7632H102.686C103.903 58.7632 104.502 59.4663 104.502 60.578C104.502 61.6991 103.903 62.5827 102.371 62.5827H101.316C99.3171 62.5827 98.2212 61.528 98.2212 59.3808C98.2212 57.224 99.3272 56.1694 101.316 56.1694Z" fill="white"/>
<path d="M105.796 56.1694H106.993V60.3593C106.993 60.9769 107.318 61.4615 108.393 61.4615H111.052V62.5827H108.322C106.506 62.5827 105.796 61.6515 105.796 60.3689V56.1694Z" fill="white"/>
<path d="M112.179 56.1694H113.376V62.5827H112.179V56.1694Z" fill="white"/>
<path d="M116.849 56.1694H120.319V57.2905H116.808C116.189 57.2905 115.915 57.604 115.915 58.0506C115.915 58.4401 116.128 58.8106 116.93 58.8106H118.533C120.4 58.8106 120.836 59.7797 120.836 60.7015C120.836 61.7846 120.218 62.5827 118.655 62.5827H114.84V61.4615H118.695C119.345 61.4615 119.639 61.129 119.639 60.6635C119.639 60.2454 119.406 59.8652 118.564 59.8652H116.971C115.144 59.8652 114.718 58.9056 114.718 58.0126C114.718 56.9484 115.327 56.1694 116.849 56.1694Z" fill="white"/>
<path d="M122.167 56.1694H123.364V58.7821H126.865V56.1694H128.072V62.5827H126.865V59.9033H123.364V62.5827H122.167V56.1694Z" fill="white"/>
<path d="M135.284 57.4235L133.112 62.5827H131.793L134.198 56.882C134.452 56.2833 134.918 56.0553 135.639 56.0553C136.349 56.0553 136.816 56.2833 137.059 56.882L139.373 62.5827H138.044L135.963 57.4235C135.903 57.2715 135.791 57.2049 135.629 57.2049C135.466 57.2049 135.355 57.2715 135.284 57.4235Z" fill="white"/>
<path d="M142.834 56.1694H145.482V57.2905H142.834C141.515 57.2905 140.937 57.908 140.937 59.3808C140.937 60.8439 141.505 61.4615 142.834 61.4615H145.482V62.5827H142.834C140.835 62.5827 139.739 61.528 139.739 59.3808C139.739 57.224 140.845 56.1694 142.834 56.1694Z" fill="white"/>
<path d="M149.761 57.4235L147.589 62.5827H146.27L148.675 56.882C148.929 56.2833 149.395 56.0553 150.116 56.0553C150.826 56.0553 151.293 56.2833 151.536 56.882L153.85 62.5827H152.521L150.44 57.4235C150.379 57.2715 150.268 57.2049 150.106 57.2049C149.943 57.2049 149.832 57.2715 149.761 57.4235Z" fill="white"/>
<path d="M155.434 56.1694H157.849C159.848 56.1694 160.934 57.2145 160.934 59.3808C160.934 61.5376 159.858 62.5827 157.849 62.5827H155.434C155.049 62.5827 154.866 62.4117 154.866 62.0601V56.6919C154.866 56.3404 155.049 56.1694 155.434 56.1694ZM156.064 57.4044V61.3475C156.064 61.433 156.104 61.4615 156.195 61.4615H157.849C159.179 61.4615 159.736 60.8439 159.736 59.3713C159.736 57.908 159.179 57.2905 157.849 57.2905H156.195C156.104 57.2905 156.064 57.3189 156.064 57.4044Z" fill="white"/>
<path d="M164.387 56.1694H167.817V57.2905H164.387C163.667 57.2905 163.352 57.604 163.352 58.0981C163.352 58.6206 163.708 58.8581 164.397 58.8581H167.766V59.8748H164.367C163.676 59.8748 163.321 60.1314 163.321 60.6538C163.321 61.1574 163.656 61.4615 164.357 61.4615H167.826V62.5827H164.357C162.733 62.5827 162.073 61.8321 162.073 60.8345C162.073 60.1028 162.428 59.6087 163.057 59.3617C162.419 59.1146 162.093 58.6206 162.093 57.9176C162.093 56.8914 162.774 56.1694 164.387 56.1694Z" fill="white"/>
<path d="M170.57 57.509V62.5827H169.373V57.4519C169.373 56.6158 169.87 56.0553 170.894 56.0553C171.807 56.0553 172.243 56.5114 172.498 57.2429L174.161 61.338C174.232 61.4996 174.365 61.604 174.547 61.604C174.75 61.604 174.902 61.4615 174.902 61.2431V57.4519C174.902 56.6158 175.4 56.0553 176.414 56.0553C177.327 56.0553 177.763 56.5114 178.038 57.2429L180.158 62.5827H178.87L176.831 57.4139C176.76 57.2525 176.627 57.1385 176.446 57.1385C176.242 57.1385 176.1 57.2809 176.1 57.509V61.2905C176.1 62.1361 175.583 62.6967 174.578 62.6967C173.675 62.6967 173.227 62.2407 172.964 61.509L171.3 57.4139C171.229 57.2525 171.098 57.1385 170.924 57.1385C170.712 57.1385 170.57 57.2809 170.57 57.509Z" fill="white"/>
<path d="M179.493 56.1694H180.945L182.863 58.9152L184.799 56.1694H186.22L183.46 59.8177V62.5827H182.253V59.8177L179.493 56.1694Z" fill="white"/>
<path d="M56.7259 36.6423C53.3972 36.6013 50.1961 33.7864 46.582 29.517L32.8848 12.1882L13.769 12.1334L29.1043 31.8688C31.4025 34.8265 35.0694 36.5802 38.9788 36.5914L56.7259 36.6423Z" fill="#00FF43"/>
<path d="M77.7338 12.3169L60.272 12.2668L46.582 29.517C50.1961 33.7864 53.3972 36.6013 56.7259 36.6423L56.8387 36.6426C60.1472 36.6521 68.4321 23.8762 77.7338 12.3169Z" fill="url(#paint0_linear_1_56)"/>
<path d="M56.7229 38.1757C53.3938 38.1978 50.1635 40.9945 46.5052 45.2435L32.6288 62.4942L13.5129 62.4408L29.0526 42.7929C31.3814 39.8482 35.0664 38.1154 38.9758 38.1262L56.7229 38.1757Z" fill="#00FF43"/>
<path d="M77.4777 62.6192L60.016 62.5706L46.5052 45.2435C50.1635 40.9945 53.3938 38.1978 56.7229 38.1757L56.8359 38.176C60.1444 38.1852 68.2964 51.0075 77.4777 62.6192Z" fill="url(#paint1_linear_1_56)"/>
<defs>
<linearGradient id="paint0_linear_1_56" x1="71.3005" y1="12.2984" x2="48.7417" y2="34.728" gradientUnits="userSpaceOnUse">
<stop offset="0.351389" stop-color="#00FF43"/>
<stop offset="1" stop-color="#009928"/>
</linearGradient>
<linearGradient id="paint1_linear_1_56" x1="71.0444" y1="62.6013" x2="48.7188" y2="40.045" gradientUnits="userSpaceOnUse">
<stop offset="0.351389" stop-color="#00FF43"/>
<stop offset="1" stop-color="#009928"/>
</linearGradient>
</defs>
</svg>
