<svg width="40" height="40" viewBox="0 0 40 40" fill="none" xmlns="http://www.w3.org/2000/svg">
<path d="M25.7677 19.6109C24.0367 19.5881 22.372 18.0249 20.4926 15.6539L13.3699 6.03044L3.42926 6L11.4039 16.9599C12.599 18.6025 14.5059 19.5764 16.5389 19.5826L25.7677 19.6109Z" fill="#00FF43"/>
<path d="M36.6922 6.10185L27.6118 6.07404L20.4926 15.6539C22.372 18.0249 24.0367 19.5881 25.7677 19.6109L25.8264 19.611C27.5469 19.6163 31.8552 12.5213 36.6922 6.10185Z" fill="url(#paint0_linear_1_50)"/>
<path d="M25.7664 20.4624C24.0352 20.4747 22.3554 22.0279 20.453 24.3875L13.2369 33.9676L3.2963 33.938L11.3772 23.0265C12.5883 21.3913 14.5046 20.4289 16.5376 20.435L25.7664 20.4624Z" fill="#00FF43"/>
<path d="M36.5593 34.037L27.4789 34.01L20.453 24.3875C22.3554 22.0279 24.0352 20.4747 25.7664 20.4624L25.8251 20.4626C27.5456 20.4677 31.7847 27.5886 36.5593 34.037Z" fill="url(#paint1_linear_1_50)"/>
<defs>
<linearGradient id="paint0_linear_1_50" x1="33.3468" y1="6.09163" x2="20.8506" y2="17.7259" gradientUnits="userSpaceOnUse">
<stop offset="0.351389" stop-color="#00FF43"/>
<stop offset="1" stop-color="#009928"/>
</linearGradient>
<linearGradient id="paint1_linear_1_50" x1="33.2138" y1="34.0271" x2="20.8338" y2="22.3148" gradientUnits="userSpaceOnUse">
<stop offset="0.351389" stop-color="#00FF43"/>
<stop offset="1" stop-color="#009928"/>
</linearGradient>
</defs>
</svg>
